<?xml version="1.0" encoding="iso-8859-1"?>
<!-- Generator: Adobe Illustrator 19.0.0, SVG Export Plug-In . SVG Version: 6.00 Build 0)  -->
<svg version="1.1" id="Capa_1" xmlns="http://www.w3.org/2000/svg" xmlns:xlink="http://www.w3.org/1999/xlink" x="0px" y="0px"
	 viewBox="0 0 512 512" style="enable-background:new 0 0 512 512;" xml:space="preserve">
<g>
	<g>
		<path d="M271,242.648V150h165c6.067,0,11.537-3.655,13.858-9.26c2.321-5.605,1.038-12.057-3.252-16.347L397.213,75l49.393-49.394
			c4.29-4.29,5.574-10.742,3.252-16.347C447.536,3.654,442.067,0,436,0H256c-8.284,0-15,6.716-15,15v227.648
			C105.817,250.359,0,361.809,0,497c0,8.284,6.716,15,15,15c13.504,0,470.241,0,482,0c8.284,0,15-6.716,15-15
			C512,361.496,405.938,250.345,271,242.648z M271,30h128.787l-34.393,34.394c-5.858,5.858-5.858,15.355,0,21.213L399.787,120H271
			V30z M121.242,482H30.496c2.102-31.723,10.873-62.54,25.691-90.1h76.626C126.145,420.38,122.206,451.05,121.242,482z M75.204,362
			c26.419-35.198,62.975-61.771,104.332-76.556c-15.424,19.733-28.571,45.633-38.47,76.556H75.204z M241,482h-89.751
			c1.032-31.152,5.269-61.815,12.434-90H241V482z M241,362h-68.259c16.7-46.929,41.571-78.851,68.259-87.576V362z M271,274.424
			c26.683,8.724,51.55,40.638,68.257,87.576H271V274.424z M271,482v-90h77.319c7.162,28.168,11.401,58.837,12.433,90H271z
			 M332.459,285.443c41.358,14.784,77.916,41.358,104.336,76.557h-65.863C361.029,331.074,347.881,305.174,332.459,285.443z
			 M390.758,482c-0.964-30.958-4.904-61.533-11.57-90h76.625c14.818,27.559,23.589,58.276,25.691,90H390.758z"/>
	</g>
</g>
<g>
</g>
<g>
</g>
<g>
</g>
<g>
</g>
<g>
</g>
<g>
</g>
<g>
</g>
<g>
</g>
<g>
</g>
<g>
</g>
<g>
</g>
<g>
</g>
<g>
</g>
<g>
</g>
<g>
</g>
</svg>
