<svg data-v-423bf9ae="" xmlns="http://www.w3.org/2000/svg" viewBox="0 0 449.3280029296875 163" class="iconAbove"><!----><!----><!----><g data-v-423bf9ae="" id="1159c482-bd53-40b8-b58f-6449b95ef0c0" fill="#FFFFFF" transform="matrix(4.8,0,0,4.8,-2.6399954676628,105.87999856472015)"><path d="M2.84 4.76L2.84 5.32L2.84 5.32Q2.84 7.07 3.23 7.90L3.23 7.90L3.23 7.90Q3.61 8.72 4.65 8.72L4.65 8.72L4.77 8.72L4.77 8.72Q6.29 8.72 6.29 6.78L6.29 6.78L8.55 6.78L8.55 6.90L8.55 6.90Q8.55 8.89 7.59 9.79L7.59 9.79L7.59 9.79Q6.62 10.68 4.65 10.68L4.65 10.68L4.65 10.68Q2.51 10.68 1.53 9.41L1.53 9.41L1.53 9.41Q0.55 8.15 0.55 5.32L0.55 5.32L0.55 4.76L0.55 4.76Q0.55 1.93 1.53 0.66L1.53 0.66L1.53 0.66Q2.51-0.60 4.65-0.60L4.65-0.60L4.65-0.60Q6.64-0.60 7.59 0.30L7.59 0.30L7.59 0.30Q8.55 1.20 8.55 3.22L8.55 3.22L8.55 3.72L6.29 3.72L6.29 3.72Q6.29 2.52 5.96 1.94L5.96 1.94L5.96 1.94Q5.63 1.36 4.77 1.36L4.77 1.36L4.65 1.36L4.65 1.36Q3.61 1.36 3.23 2.18L3.23 2.18L3.23 2.18Q2.84 3.01 2.84 4.76L2.84 4.76ZM12.99 10.68L12.99 10.68L12.99 10.68Q11.27 10.68 10.39 9.70L10.39 9.70L10.39 9.70Q9.52 8.72 9.52 7.04L9.52 7.04L9.52 6.54L9.52 6.54Q9.52 4.86 10.39 3.88L10.39 3.88L10.39 3.88Q11.27 2.90 12.99 2.90L12.99 2.90L12.99 2.90Q14.73 2.90 15.60 3.88L15.60 3.88L15.60 3.88Q16.46 4.86 16.46 6.54L16.46 6.54L16.46 7.04L16.46 7.04Q16.46 8.72 15.60 9.70L15.60 9.70L15.60 9.70Q14.73 10.68 12.99 10.68ZM11.73 7.04L11.73 7.04Q11.73 8.78 12.99 8.78L12.99 8.78L12.99 8.78Q14.25 8.78 14.25 7.04L14.25 7.04L14.25 6.54L14.25 6.54Q14.25 4.80 12.99 4.80L12.99 4.80L12.99 4.80Q11.73 4.80 11.73 6.54L11.73 6.54L11.73 7.04ZM17.56 8.11L17.56 3.08L19.75 3.08L19.75 7.74L19.75 7.74Q19.75 8.78 20.73 8.78L20.73 8.78L20.73 8.78Q21.56 8.78 22.04 8.08L22.04 8.08L22.04 3.08L24.25 3.08L24.25 8.40L24.37 10.50L22.40 10.50L22.23 9.56L22.23 9.56Q21.42 10.68 19.85 10.68L19.85 10.68L19.85 10.68Q18.66 10.68 18.11 9.95L18.11 9.95L18.11 9.95Q17.56 9.23 17.56 8.11L17.56 8.11ZM32.45 5.47L32.45 10.50L30.25 10.50L30.25 5.84L30.25 5.84Q30.25 4.80 29.27 4.80L29.27 4.80L29.27 4.80Q28.42 4.80 27.97 5.50L27.97 5.50L27.97 10.50L25.76 10.50L25.76 5.18L25.63 3.08L27.61 3.08L27.78 4.03L27.78 4.03Q28.57 2.90 30.16 2.90L30.16 2.90L30.16 2.90Q31.33 2.90 31.89 3.63L31.89 3.63L31.89 3.63Q32.45 4.35 32.45 5.47L32.45 5.47ZM36.74 0.98L36.74 3.08L38.64 3.08L38.64 5.01L36.74 5.01L36.74 7.69L36.74 7.69Q36.74 8.33 37.00 8.55L37.00 8.55L37.00 8.55Q37.27 8.78 37.83 8.78L37.83 8.78L37.83 8.78Q38.30 8.78 38.50 8.68L38.50 8.68L38.50 10.50L38.50 10.50Q38.18 10.68 37.31 10.68L37.31 10.68L37.31 10.68Q34.52 10.68 34.52 7.92L34.52 7.92L34.52 5.01L33.39 5.01L33.39 3.08L34.52 3.08L34.52 0.98L36.74 0.98ZM43.89 2.90L43.89 2.90L43.89 2.90Q44.04 2.90 44.10 2.91L44.10 2.91L44.10 5.04L43.72 5.04L43.72 5.04Q42.57 5.04 42.13 5.68L42.13 5.68L42.13 10.50L39.91 10.50L39.91 5.18L39.79 3.08L41.76 3.08L41.92 3.95L41.92 3.95Q42.66 2.90 43.89 2.90ZM47.52 10.50L45.30 10.50L45.30 3.08L47.52 3.08L47.52 10.50ZM45.25-0.31L47.57-0.31L47.57 2.03L45.25 2.03L45.25-0.31ZM55.64 6.59L55.64 7.59L50.90 7.59L50.90 7.59Q50.96 8.34 51.31 8.67L51.31 8.67L51.31 8.67Q51.66 9.00 52.30 9.00L52.30 9.00L52.30 9.00Q52.86 9.00 53.21 8.74L53.21 8.74L53.21 8.74Q53.55 8.47 53.55 8.12L53.55 8.12L55.64 8.12L55.64 8.18L55.64 8.18Q55.64 9.27 54.75 9.97L54.75 9.97L54.75 9.97Q53.86 10.68 52.29 10.68L52.29 10.68L52.29 10.68Q50.51 10.68 49.60 9.67L49.60 9.67L49.60 9.67Q48.69 8.67 48.69 6.99L48.69 6.99L48.69 6.59L48.69 6.59Q48.69 4.93 49.60 3.91L49.60 3.91L49.60 3.91Q50.51 2.90 52.21 2.90L52.21 2.90L52.21 2.90Q53.90 2.90 54.77 3.91L54.77 3.91L54.77 3.91Q55.64 4.91 55.64 6.59L55.64 6.59ZM53.41 5.99L53.41 5.99Q53.31 4.58 52.16 4.58L52.16 4.58L52.16 4.58Q51.02 4.58 50.92 5.99L50.92 5.99L53.41 5.99ZM59.75 9.00L59.75 9.00L59.75 9.00Q60.75 9.00 60.75 8.27L60.75 8.27L60.75 8.27Q60.75 7.92 60.51 7.76L60.51 7.76L60.51 7.76Q60.27 7.59 59.64 7.53L59.64 7.53L59.64 7.53Q58.03 7.41 57.33 6.94L57.33 6.94L57.33 6.94Q56.63 6.47 56.63 5.45L56.63 5.45L56.63 5.32L56.63 5.32Q56.63 4.10 57.48 3.50L57.48 3.50L57.48 3.50Q58.34 2.90 59.75 2.90L59.75 2.90L59.75 2.90Q62.87 2.90 62.87 5.45L62.87 5.45L62.87 5.52L60.70 5.52L60.70 5.52Q60.70 4.58 59.75 4.58L59.75 4.58L59.75 4.58Q59.30 4.58 59.06 4.76L59.06 4.76L59.06 4.76Q58.81 4.94 58.81 5.25L58.81 5.25L58.81 5.25Q58.81 5.60 59.04 5.75L59.04 5.75L59.04 5.75Q59.26 5.91 59.88 5.96L59.88 5.96L59.88 5.96Q61.45 6.09 62.21 6.53L62.21 6.53L62.21 6.53Q62.97 6.97 62.97 8.06L62.97 8.06L62.97 8.19L62.97 8.19Q62.97 9.37 62.15 10.02L62.15 10.02L62.15 10.02Q61.33 10.68 59.75 10.68L59.75 10.68L59.75 10.68Q58.17 10.68 57.36 10.01L57.36 10.01L57.36 10.01Q56.55 9.34 56.55 8.22L56.55 8.22L56.55 8.15L58.74 8.15L58.74 8.15Q58.74 9.00 59.75 9.00ZM70.95 10.68L70.95 10.68L70.95 10.68Q68.81 10.68 67.80 9.41L67.80 9.41L67.80 9.41Q66.79 8.13 66.79 5.32L66.79 5.32L66.79 4.76L66.79 4.76Q66.79 1.95 67.80 0.67L67.80 0.67L67.80 0.67Q68.81-0.60 70.95-0.60L70.95-0.60L70.95-0.60Q73.11-0.60 74.12 0.67L74.12 0.67L74.12 0.67Q75.12 1.95 75.12 4.76L75.12 4.76L75.12 5.32L75.12 5.32Q75.12 9.24 73.05 10.26L73.05 10.26L73.71 11.90L71.95 11.90L71.47 10.65L71.47 10.65Q71.13 10.68 70.95 10.68ZM69.99 6.83L71.69 6.83L72.23 8.19L72.23 8.19Q72.81 7.45 72.81 5.32L72.81 5.32L72.81 4.76L72.81 4.76Q72.81 3.02 72.42 2.19L72.42 2.19L72.42 2.19Q72.03 1.36 71.02 1.36L71.02 1.36L70.90 1.36L70.90 1.36Q69.89 1.36 69.49 2.19L69.49 2.19L69.49 2.19Q69.09 3.02 69.09 4.76L69.09 4.76L69.09 5.32L69.09 5.32Q69.09 6.97 69.45 7.80L69.45 7.80L69.45 7.80Q69.80 8.64 70.71 8.72L70.71 8.72L69.99 6.83ZM76.34 8.11L76.34 3.08L78.54 3.08L78.54 7.74L78.54 7.74Q78.54 8.78 79.52 8.78L79.52 8.78L79.52 8.78Q80.35 8.78 80.82 8.08L80.82 8.08L80.82 3.08L83.03 3.08L83.03 8.40L83.16 10.50L81.19 10.50L81.02 9.56L81.02 9.56Q80.21 10.68 78.64 10.68L78.64 10.68L78.64 10.68Q77.45 10.68 76.89 9.95L76.89 9.95L76.89 9.95Q76.34 9.23 76.34 8.11L76.34 8.11ZM86.76 10.50L84.55 10.50L84.55 3.08L86.76 3.08L86.76 10.50ZM84.49-0.31L86.81-0.31L86.81 2.03L84.49 2.03L84.49-0.31ZM87.85 10.50L87.85 8.99L91.13 4.97L89.59 5.01L87.99 5.01L87.99 3.08L94.02 3.08L94.02 4.59L90.75 8.61L92.29 8.57L94.16 8.57L94.16 10.50L87.85 10.50Z"></path></g><!----><g data-v-423bf9ae="" id="20142abb-875b-4d33-9cc4-6163d80b57fc" transform="matrix(1.2328767123287672,0,0,1.2328767123287672,170.76849595814537,-9.86301369863014)" stroke="none" fill="#1BBC9B"><path d="M49.8 57.3L46 68.2V68H15.7l16.8 13h23.1l9.8-30.3-10.8-7.8z"></path><path d="M53.7 39.6l14 10.2-9.5 29.3L75 66.9l7.1-22-25.7-18.6-10.5 7.6z"></path><path d="M81.4 41.9L75 22.2 56.3 8.7 30.8 27.2l4 12.4 21.6-15.8z"></path><path d="M34 42.8l-5.4-16.6L53.2 8H32.5L13.8 21.8 23.5 52h13.2L34 42.8z"></path><path d="M39.4 54H22.1l-9.5-29.1-6.4 19.4L13.4 66h31.5L49 54z"></path></g><!----></svg>